# xmcd
#
# Track frame offsets:
#   150
#   14986
#   39699
#   73864
#   89440
#   106884
#   128919
#   144454
#
# Disc length: 2437 seconds
#
# Revision: 0
# Processed by: cddbd v1.5.2PL0 Copyright (c) Steve Scherf et al.
# Submitted via: GXTranscoder 2.0.1939
#
DISCID=76098308
DTITLE=pluspoint - we like it
DYEAR=2007
DGENRE=Blues
TTITLE0=I can move
TTITLE1=The Show
TTITLE2=Be on Top
TTITLE3=I Like it
TTITLE4=Boogie Blues
TTITLE5=My Friend
TTITLE6=Short love
TTITLE7=Kokane Blues
EXTD=
EXTT0=
EXTT1=
EXTT2=
EXTT3=
EXTT4=
EXTT5=
EXTT6=
EXTT7=
PLAYORDER=
